<svg xmlns="http://www.w3.org/2000/svg" version="1.1" xmlns:xlink="http://www.w3.org/1999/xlink" xmlns:svgjs="http://svgjs.dev/svgjs" width="165.6px" height="172.767px"><svg xmlns="http://www.w3.org/2000/svg" viewBox="109.75 83.0313 155.25 161.9688" width="165.6px" height="172.767px" xmlns:bx="https://boxy-svg.com" preserveAspectRatio="none"><defs><clipPath id="SvgjsClipPath1017"><path d="M 109.75 83 L 265 83 L 265 245 L 109.75 245 Z M 109.75 83 " clip-rule="nonzero"></path></clipPath><bx:export><bx:file format="svg" href="#object-0"></bx:file><bx:file format="svg" path="Untitled 2.svg"></bx:file></bx:export></defs><g clip-path="url(#66984c1a3a)" style="" transform="matrix(0.928194, 0, 0, 0.928194, 12.796214, 12.187618)" id="SvgjsG1016"><path fill="#262920" d="M 188.332031 168.660156 C 187.042969 168.660156 185.683594 168.933594 184.257812 169.492188 C 178.832031 171.605469 176.566406 178.746094 175.621094 184.355469 C 174.011719 193.898438 176.828125 205.976562 182.972656 215.882812 C 184.554688 218.4375 186.480469 220.875 188.667969 223.140625 C 189.414062 222.355469 190.132812 221.542969 190.820312 220.707031 C 196.050781 214.367188 199.730469 202.515625 200.539062 194.585938 C 201.425781 185.910156 199.304688 174.835938 193.546875 170.457031 C 191.972656 169.257812 190.234375 168.660156 188.332031 168.660156 Z M 110.574219 245.125 C 110.109375 245.125 109.734375 244.746094 109.734375 244.285156 L 109.734375 154.167969 L 187.472656 83.03125 L 265.210938 154.167969 L 265.210938 240.535156 L 264.371094 240.535156 C 254.324219 240.535156 245.089844 240.6875 235.316406 240.84375 L 226.652344 240.984375 L 220.96875 240.648438 C 209.71875 239.976562 197.449219 234.023438 188.675781 225.523438 C 178.621094 235.382812 164.101562 241.144531 149.640625 240.816406 C 149.179688 240.804688 148.8125 240.417969 148.824219 239.953125 C 148.832031 239.5 149.207031 239.132812 149.664062 239.132812 C 149.667969 239.132812 149.675781 239.132812 149.683594 239.132812 C 163.65625 239.476562 177.75 233.875 187.492188 224.335938 C 185.207031 221.972656 183.191406 219.433594 181.539062 216.769531 C 175.195312 206.527344 172.292969 194.003906 173.964844 184.078125 C 175.421875 175.414062 178.769531 169.828125 183.648438 167.925781 C 187.695312 166.351562 191.46875 166.757812 194.566406 169.117188 C 201.109375 174.09375 203.117188 185.898438 202.214844 194.757812 C 201.355469 203.136719 197.617188 215.109375 192.121094 221.777344 C 191.394531 222.65625 190.640625 223.503906 189.851562 224.332031 C 198.332031 232.558594 210.195312 238.320312 221.070312 238.964844 L 226.6875 239.300781 L 235.289062 239.164062 C 244.800781 239.007812 253.792969 238.863281 263.53125 238.855469 L 263.53125 154.910156 L 187.472656 85.308594 L 111.414062 154.910156 L 111.414062 244.285156 C 111.414062 244.746094 111.035156 245.125 110.574219 245.125 " style="stroke-miterlimit: 1; fill-rule: nonzero; paint-order: fill; stroke-width: 4; stroke: black;"></path></g></svg><style>@media (prefers-color-scheme: light) { :root { filter: none; } }
@media (prefers-color-scheme: dark) { :root { filter: invert(100%); } }
</style></svg>