<svg version="1.1" viewBox="0.0 0.0 960.0 540.0" fill="none" stroke="none" stroke-linecap="square" stroke-miterlimit="10" xmlns:xlink="http://www.w3.org/1999/xlink" xmlns="http://www.w3.org/2000/svg"><clipPath id="p.0"><path d="m0 0l960.0 0l0 540.0l-960.0 0l0 -540.0z" clip-rule="nonzero"/></clipPath><g clip-path="url(#p.0)"><path fill="#ffffff" d="m0 0l960.0 0l0 540.0l-960.0 0z" fill-rule="evenodd"/><path fill="#eeeeee" d="m573.8848 56.161106l315.2126 0l0 247.93701l-315.2126 0z" fill-rule="evenodd"/><path stroke="#eeeeee" stroke-width="1.0" stroke-linejoin="round" stroke-linecap="butt" d="m573.8848 56.161106l315.2126 0l0 247.93701l-315.2126 0z" fill-rule="evenodd"/><path fill="#000000" d="m723.1979 194.3921l7.8125 0l0 -22.46875q0 -1.3125 0.078125 -2.75l-5.546875 4.640625q-0.34375 0.296875 -0.703125 0.40625q-0.359375 0.09375 -0.703125 0.09375q-0.53125 0 -0.984375 -0.21875q-0.4375 -0.234375 -0.640625 -0.515625l-2.078125 -2.859375l11.75 -10.0l5.421875 0l0 33.671875l6.921875 0l0 4.9375l-21.328125 0l0 -4.9375z" fill-rule="nonzero"/><path fill="#ff9900" d="m70.90806 56.161106l158.74017 0l0 104.220474l-158.74017 0z" fill-rule="evenodd"/><path stroke="#ff9900" stroke-width="1.0" stroke-linejoin="round" stroke-linecap="butt" d="m70.90806 56.161106l158.74017 0l0 104.220474l-158.74017 0z" fill-rule="evenodd"/><path fill="#000000" d="m161.188 91.721344q0 1.40625 -0.90625 2.296875q-0.890625 0.875 -2.96875 0.875l-10.609375 0l-1.390625 8.046875q2.625 -0.53125 4.78125 -0.53125q3.03125 0 5.34375 0.90625q2.3125 0.90625 3.875 2.515625q1.578125 1.59375 2.375 3.734375q0.796875 2.140625 0.796875 4.625q0 3.0625 -1.078125 5.609375q-1.078125 2.53125 -3.0 4.328125q-1.921875 1.796875 -4.546875 2.78125q-2.625 0.984375 -5.71875 0.984375q-1.8125 0 -3.4375 -0.375q-1.625 -0.359375 -3.0625 -0.984375q-1.421875 -0.640625 -2.640625 -1.453125q-1.203125 -0.8125 -2.15625 -1.71875l2.015625 -2.796875q0.640625 -0.90625 1.71875 -0.90625q0.65625 0 1.328125 0.4375q0.6875 0.421875 1.59375 0.921875q0.90625 0.5 2.109375 0.9375q1.203125 0.421875 2.90625 0.421875q1.8125 0 3.203125 -0.578125q1.390625 -0.59375 2.296875 -1.640625q0.921875 -1.0625 1.390625 -2.515625q0.46875 -1.453125 0.46875 -3.15625q0 -3.140625 -1.828125 -4.90625q-1.828125 -1.78125 -5.375 -1.78125q-2.796875 0 -5.625 1.0l-4.09375 -1.171875l3.1875 -18.71875l19.046875 0l0 2.8125z" fill-rule="nonzero"/><path fill="#eeeeee" d="m70.90806 160.38002l158.74017 0l0 206.70866l-158.74017 0z" fill-rule="evenodd"/><path stroke="#eeeeee" stroke-width="1.0" stroke-linejoin="round" stroke-linecap="butt" d="m70.90806 160.38002l158.74017 0l0 206.70866l-158.74017 0z" fill-rule="evenodd"/><path fill="#93c47d" d="m70.90806 367.07373l158.74017 0l0 125.98425l-158.74017 0z" fill-rule="evenodd"/><path stroke="#93c47d" stroke-width="1.0" stroke-linejoin="round" stroke-linecap="butt" d="m70.90806 367.07373l158.74017 0l0 125.98425l-158.74017 0z" fill-rule="evenodd"/><path fill="#000000" d="m152.67238 425.18774q2.1875 0 4.25 0.71875q2.078125 0.71875 3.640625 2.171875q1.578125 1.453125 2.53125 3.625q0.96875 2.15625 0.96875 5.03125q0 2.6875 -0.984375 5.046875q-0.984375 2.359375 -2.78125 4.125q-1.78125 1.765625 -4.296875 2.78125q-2.515625 1.0 -5.5625 1.0q-3.09375 0 -5.546875 -0.984375q-2.453125 -0.984375 -4.1875 -2.75q-1.734375 -1.78125 -2.65625 -4.265625q-0.921875 -2.5 -0.921875 -5.546875q0 -2.71875 1.109375 -5.578125q1.109375 -2.875 3.4375 -5.96875l9.1875 -12.34375q0.484375 -0.640625 1.40625 -1.09375q0.921875 -0.453125 2.125 -0.453125l5.859375 0l-11.4375 14.0q-0.375 0.453125 -0.71875 0.859375q-0.328125 0.40625 -0.640625 0.828125q1.125 -0.5625 2.40625 -0.875q1.296875 -0.328125 2.8125 -0.328125zm-9.21875 11.96875q0 1.609375 0.4375 2.9375q0.4375 1.3125 1.296875 2.25q0.875 0.921875 2.15625 1.453125q1.28125 0.515625 2.953125 0.515625q1.578125 0 2.890625 -0.53125q1.328125 -0.546875 2.265625 -1.5q0.953125 -0.96875 1.484375 -2.25q0.546875 -1.296875 0.546875 -2.8125q0 -1.65625 -0.515625 -2.96875q-0.5 -1.328125 -1.4375 -2.25q-0.9375 -0.921875 -2.25 -1.390625q-1.296875 -0.484375 -2.875 -0.484375q-1.5625 0 -2.84375 0.53125q-1.28125 0.53125 -2.203125 1.484375q-0.921875 0.9375 -1.421875 2.234375q-0.484375 1.296875 -0.484375 2.78125z" fill-rule="nonzero"/><path fill="#a4c2f4" d="m229.65863 56.161106l344.25195 0l0 436.9134l-344.25195 0z" fill-rule="evenodd"/><path stroke="#a4c2f4" stroke-width="1.0" stroke-linejoin="round" stroke-linecap="butt" d="m229.65863 56.161106l344.25195 0l0 436.9134l-344.25195 0z" fill-rule="evenodd"/><path fill="#000000" d="m411.4445 279.28656l4.84375 0l0 3.8125q0 0.53125 -0.34375 0.921875q-0.34375 0.390625 -1.015625 0.390625l-3.484375 0l0 9.40625l-5.765625 0l0 -9.40625l-16.265625 0q-0.671875 0 -1.1875 -0.40625q-0.5 -0.421875 -0.625 -1.046875l-0.671875 -3.328125l18.265625 -24.39064l6.25 0l0 24.04689zm-5.765625 -12.609375q0 -0.859375 0.046875 -1.84375q0.0625 -0.984375 0.1875 -2.046875l-11.96875 16.5l11.734375 0l0 -12.609375z" fill-rule="nonzero"/><path fill="#c9daf8" d="m573.8848 278.06024l134.51971 0l0 215.02362l-134.51971 0z" fill-rule="evenodd"/><path stroke="#c9daf8" stroke-width="1.0" stroke-linejoin="round" stroke-linecap="butt" d="m573.8848 278.06024l134.51971 0l0 215.02362l-134.51971 0z" fill-rule="evenodd"/><path fill="#000000" d="m642.35144 377.7877q2.65625 0 4.796875 0.765625q2.15625 0.75 3.671875 2.109375q1.515625 1.34375 2.328125 3.15625q0.828125 1.8125 0.828125 3.921875q0 1.828125 -0.421875 3.234375q-0.40625 1.40625 -1.203125 2.453125q-0.78125 1.03125 -1.921875 1.75q-1.125 0.71875 -2.5625 1.203125q3.46875 1.078125 5.171875 3.328125q1.703125 2.234375 1.703125 5.625q0 2.875 -1.0625 5.09375q-1.0625 2.203125 -2.890625 3.71875q-1.8125 1.5 -4.203125 2.28125q-2.375 0.765625 -5.046875 0.765625q-2.90625 0 -5.0625 -0.65625q-2.15625 -0.671875 -3.765625 -1.96875q-1.59375 -1.3125 -2.71875 -3.203125q-1.109375 -1.90625 -1.90625 -4.375l2.90625 -1.203125q0.734375 -0.328125 1.515625 -0.328125q0.6875 0 1.234375 0.296875q0.546875 0.296875 0.84375 0.859375q0.484375 0.9375 1.046875 1.84375q0.578125 0.90625 1.375 1.609375q0.796875 0.703125 1.875 1.140625q1.09375 0.4375 2.578125 0.4375q1.6875 0 2.9375 -0.546875q1.25 -0.546875 2.09375 -1.421875q0.84375 -0.875 1.25 -1.953125q0.421875 -1.078125 0.421875 -2.171875q0 -1.390625 -0.296875 -2.515625q-0.296875 -1.140625 -1.234375 -1.9375q-0.921875 -0.8125 -2.671875 -1.265625q-1.75 -0.453125 -4.6875 -0.453125l0 -4.6875q2.4375 -0.03125 4.03125 -0.453125q1.59375 -0.421875 2.546875 -1.1875q0.953125 -0.765625 1.3125 -1.828125q0.375 -1.0625 0.375 -2.34375q0 -2.75 -1.5 -4.140625q-1.484375 -1.40625 -4.0625 -1.40625q-2.359375 0 -3.90625 1.25q-1.53125 1.234375 -2.15625 3.171875q-0.3125 1.015625 -0.875 1.453125q-0.5625 0.4375 -1.46875 0.4375q-0.421875 0 -0.90625 -0.078125l-3.46875 -0.609375q0.40625 -2.765625 1.546875 -4.859375q1.15625 -2.09375 2.875 -3.484375q1.71875 -1.40625 3.9375 -2.109375q2.234375 -0.71875 4.796875 -0.71875z" fill-rule="nonzero"/><path fill="#ffffff" d="m708.4029 304.11536l180.66144 0l0 188.97638l-180.66144 0z" fill-rule="evenodd"/><path stroke="#ffffff" stroke-width="1.0" stroke-linejoin="round" stroke-linecap="butt" d="m708.4029 304.11536l180.66144 0l0 188.97638l-180.66144 0z" fill-rule="evenodd"/><path fill="#000000" d="m799.31537 378.81915q2.671875 0 4.875 0.796875q2.21875 0.78125 3.796875 2.21875q1.578125 1.4375 2.453125 3.46875q0.875 2.015625 0.875 4.5q0 2.140625 -0.625 3.953125q-0.625 1.8125 -1.6875 3.46875q-1.046875 1.640625 -2.46875 3.1875q-1.40625 1.546875 -2.953125 3.15625l-8.6875 8.875q1.28125 -0.375 2.5 -0.5625q1.234375 -0.203125 2.359375 -0.203125l9.890625 0q1.0625 0 1.6875 0.59375q0.625 0.59375 0.625 1.578125l0 3.953125l-26.453125 0l0 -2.1875q0 -0.671875 0.28125 -1.390625q0.28125 -0.71875 0.890625 -1.328125l11.71875 -11.734375q1.453125 -1.484375 2.609375 -2.84375q1.171875 -1.359375 1.953125 -2.6875q0.796875 -1.34375 1.203125 -2.71875q0.40625 -1.375 0.40625 -2.890625q0 -1.390625 -0.40625 -2.4375q-0.390625 -1.0625 -1.140625 -1.78125q-0.734375 -0.71875 -1.765625 -1.078125q-1.03125 -0.359375 -2.3125 -0.359375q-2.359375 0 -3.90625 1.203125q-1.53125 1.203125 -2.140625 3.21875q-0.296875 1.015625 -0.890625 1.453125q-0.578125 0.4375 -1.484375 0.4375q-0.390625 0 -0.875 -0.078125l-3.46875 -0.609375q0.40625 -2.765625 1.546875 -4.859375q1.140625 -2.09375 2.859375 -3.484375q1.734375 -1.40625 3.953125 -2.109375q2.21875 -0.71875 4.78125 -0.71875z" fill-rule="nonzero"/><path fill="#ffffff" d="m786.39435 253.04214l102.677185 0l0 51.08661l-102.677185 0z" fill-rule="evenodd"/><path stroke="#ffffff" stroke-width="1.0" stroke-linejoin="round" stroke-linecap="butt" d="m786.39435 253.04214l102.677185 0l0 51.08661l-102.677185 0z" fill-rule="evenodd"/><path fill="#eeeeee" d="m824.5662 25.774342l6.5827026 0l0 -10.866142l13.165344 0l0 10.866142l6.5826416 0l-13.165344 10.866142z" fill-rule="evenodd"/><path stroke="#595959" stroke-width="1.0" stroke-linejoin="round" stroke-linecap="butt" d="m824.5662 25.774342l6.5827026 0l0 -10.866142l13.165344 0l0 10.866142l6.5826416 0l-13.165344 10.866142z" fill-rule="evenodd"/><path fill="#000000" fill-opacity="0.0" d="m889.1498 252.57333l1.0393677 240.6614" fill-rule="evenodd"/><path stroke="#eeeeee" stroke-width="1.0" stroke-linejoin="round" stroke-linecap="butt" d="m889.1498 252.57333l1.0393677 240.6614" fill-rule="evenodd"/><path fill="#000000" fill-opacity="0.0" d="m707.8952 493.01312l182.8031 0" fill-rule="evenodd"/><path stroke="#eeeeee" stroke-width="1.0" stroke-linejoin="round" stroke-linecap="butt" d="m707.8952 493.01312l182.8031 0" fill-rule="evenodd"/><path fill="#000000" fill-opacity="0.0" d="m58.099957 495.51196l-38.55118 28.692932" fill-rule="evenodd"/><path stroke="#595959" stroke-width="3.0" stroke-linejoin="round" stroke-linecap="butt" d="m58.099957 495.51196l-24.11164 17.945862" fill-rule="evenodd"/><path fill="#595959" stroke="#595959" stroke-width="3.0" stroke-linecap="butt" d="m31.029766 509.48276l-7.9627914 12.103607l13.87989 -4.1535034z" fill-rule="evenodd"/><path fill="#000000" fill-opacity="0.0" d="m12.624505 551.64307l-9.6377945 -13.196838l18.519686 -13.511841l9.6377945 13.196899z" fill-rule="evenodd"/><path fill="#595959" d="m8.48328 541.3216q-0.12901402 -0.17669678 -0.18670559 -0.3086548q-0.07952976 -0.13537598 -0.09354591 -0.26055908q-0.026638985 -0.1159668 -0.00278759 -0.2687378q0.011228561 -0.14361572 0.054516792 -0.34924316l4.015299 -14.18634q-0.3131628 0.28649902 -0.6195116 0.5293579q-0.31897163 0.2520752 -0.59666824 0.45465088l-8.532853 6.225525l-1.6771724 -2.2965088l14.023668 -10.231567l0.9860306 1.3501587q0.2211647 0.3027954 0.28025055 0.56915283q0.046463013 0.27557373 -0.05854416 0.6616821l-3.995861 14.133484q0.29713345 -0.25549316 0.5908594 -0.48913574q0.29372692 -0.23364258 0.54617786 -0.41784668l8.608589 -6.2807617l1.6771717 2.2965698l-14.023668 10.231506l-0.995245 -1.3627319l0 0z" fill-rule="nonzero"/><path fill="#000000" fill-opacity="0.0" d="m53.842777 522.7285l-21.952755 -30.078705" fill-rule="evenodd"/><path stroke="#595959" stroke-width="3.0" stroke-linejoin="round" stroke-linecap="butt" d="m53.842777 522.7285l-21.952755 -30.078705" fill-rule="evenodd"/></g></svg>