<svg fill="none" stroke-linecap="square" stroke-miterlimit="10" viewBox="0 0 960 540" xmlns="http://www.w3.org/2000/svg" xmlns:xlink="http://www.w3.org/1999/xlink"><clipPath id="a"><path d="m0 0h960v540h-960z"/></clipPath><g clip-path="url(#a)"><path d="m0 0h960v540h-960z" fill="#fff" fill-rule="evenodd"/><path d="m649.0471 56.40941h123.74805v432.09448h-123.74805z" fill="#eee" fill-rule="evenodd"/><path d="m649.0471 56.40941h123.74805v432.09448h-123.74805z" fill-rule="evenodd" stroke="#eee" stroke-linecap="butt" stroke-linejoin="round"/><path d="m183.77736 243.65083h145.85826v244.91338h-145.85826z" fill="#eee" fill-rule="evenodd"/><path d="m183.77736 243.65083h145.85826v244.91338h-145.85826z" fill-rule="evenodd" stroke="#eee" stroke-linecap="butt" stroke-linejoin="round"/><path d="m70.908134 56.40941h223.811v187.2126h-223.811z" fill="#536096" fill-rule="evenodd"/><path d="m70.908134 56.40941h223.811v187.2126h-223.811z" fill-rule="evenodd" stroke="#536096" stroke-linecap="butt" stroke-linejoin="round"/><path d="m193.72351 133.46571q0 1.40625-.90625 2.296875-.890625.875-2.96875.875h-10.609375l-1.390625 8.046875q2.625-.53125 4.78125-.53125 3.03125 0 5.34375.90625 2.3125.90625 3.875 2.515625 1.578125 1.59375 2.375 3.734375.796875 2.140625.796875 4.625 0 3.0625-1.078125 5.609375-1.078125 2.53125-3 4.328125-1.921875 1.796875-4.546875 2.78125-2.625.984375-5.71875.984375-1.8125 0-3.4375-.375-1.625-.359375-3.0625-.984375-1.421875-.640625-2.640625-1.453125-1.203125-.8125-2.15625-1.71875l2.015625-2.796875q.640625-.90625 1.71875-.90625.65625 0 1.328125.4375.6875.421875 1.59375.921875.90625.5 2.109375.9375 1.203125.421875 2.90625.421875 1.8125 0 3.203125-.578125 1.390625-.59375 2.296875-1.640625.921875-1.0625 1.390625-2.515625.46875-1.453125.46875-3.15625 0-3.140625-1.828125-4.90625-1.828125-1.78125-5.375-1.78125-2.796875 0-5.625 1l-4.09375-1.171875 3.1875-18.71875h19.046875z" fill="#000"/><path d="m70.908134 243.65083h112.88189v28.850388h-112.88189z" fill="#536096" fill-rule="evenodd"/><path d="m70.908134 243.65083h112.88189v28.850388h-112.88189z" fill-rule="evenodd" stroke="#536096" stroke-linecap="butt" stroke-linejoin="round"/><path d="m70.908134 272.4806h112.88189v28.850403h-112.88189z" fill="#9f81a8" fill-rule="evenodd"/><path d="m70.908134 272.4806h112.88189v28.850403h-112.88189z" fill-rule="evenodd" stroke="#9f81a8" stroke-linecap="butt" stroke-linejoin="round"/><path d="m70.908134 301.31036h165.5433v187.21262h-165.5433z" fill="#9f81a8" fill-rule="evenodd"/><path d="m70.908134 301.31036h165.5433v187.21262h-165.5433z" fill-rule="evenodd" stroke="#9f81a8" stroke-linecap="butt" stroke-linejoin="round"/><path d="m156.07404 390.03854q2.1875 0 4.25.71875 2.078125.71875 3.640625 2.171875 1.578125 1.453125 2.53125 3.625.96875 2.15625.96875 5.03125 0 2.6875-.984375 5.046875-.984375 2.359375-2.78125 4.125-1.78125 1.765625-4.296875 2.78125-2.515625 1-5.5625 1-3.09375 0-5.546875-.984375-2.453125-.984375-4.1875-2.75-1.734375-1.78125-2.65625-4.265625-.921875-2.5-.921875-5.546875 0-2.71875 1.109375-5.578125 1.109375-2.875 3.4375-5.96875l9.1875-12.34375q.484375-.640625 1.40625-1.09375.921875-.453125 2.125-.453125h5.859375l-11.4375 14q-.375.453125-.71875.859375-.328125.40625-.640625.828125 1.125-.5625 2.40625-.875 1.296875-.328125 2.8125-.328125zm-9.21875 11.96875q0 1.609375.4375 2.9375.4375 1.3125 1.296875 2.25.875.921875 2.15625 1.453125 1.28125.515625 2.953125.515625 1.578125 0 2.890625-.53125 1.328125-.546875 2.265625-1.5.953125-.96875 1.484375-2.25.546875-1.296875.546875-2.8125 0-1.65625-.515625-2.96875-.5-1.328125-1.4375-2.25-.9375-.921875-2.25-1.390625-1.296875-.484375-2.875-.484375-1.5625 0-2.84375.53125-1.28125.53125-2.203125 1.484375-.921875.9375-1.421875 2.234375-.484375 1.296875-.484375 2.78125z" fill="#000"/><path d="m294.70987 123.22404h177.16534v282.3937h-177.16534z" fill="#697a68" fill-rule="evenodd"/><path d="m294.70987 123.22404h177.16534v282.3937h-177.16534z" fill-rule="evenodd" stroke="#697a68" stroke-linecap="butt" stroke-linejoin="round"/><path d="m392.9524 269.08963h4.84375v3.8125q0 .53125-.34375.921875-.34375.390625-1.015625.390625h-3.484375v9.40625h-5.765625v-9.40625h-16.265625q-.671875 0-1.1875-.40625-.5-.421875-.625-1.046875l-.671875-3.328125 18.265625-24.390625h6.25zm-5.765625-12.609375q0-.859375.046875-1.84375.0625-.984375.1875-2.046875l-11.96875 16.5h11.734375z" fill="#000"/><g fill-rule="evenodd"><path d="m326.05118 405.6237h145.85828v82.92914h-145.85828z" fill="#697a68"/><path d="m326.05118 405.6237h145.85828v82.92914h-145.85828z" stroke="#697a68" stroke-linecap="butt" stroke-linejoin="round"/><path d="m294.70987 29.09181h177.16534v94.14173h-177.16534z" fill="#697a68"/><path d="m294.70987 29.09181h177.16534v94.14173h-177.16534z" stroke="#000" stroke-dasharray="12 9" stroke-linecap="butt" stroke-linejoin="round" stroke-width="3"/><path d="m471.8785 29.09181h177.16537v94.14173h-177.16537z" fill="#ae3f3d"/><path d="m471.8785 29.09181h177.16537v94.14173h-177.16537z" stroke="#000" stroke-dasharray="16 12" stroke-linecap="butt" stroke-linejoin="round" stroke-width="4"/><path d="m471.8785 123.22404h177.16537v365.29135h-177.16537z" fill="#ae3f3d"/><path d="m471.8785 123.22404h177.16537v365.29135h-177.16537z" stroke="#ae3f3d" stroke-linecap="butt" stroke-linejoin="round"/></g><path d="m561.6679 241.43965q2.65625 0 4.796875.765625 2.15625.75 3.671875 2.109375 1.515625 1.34375 2.328125 3.15625.828125 1.8125.828125 3.921875 0 1.828125-.421875 3.234375-.40625 1.4062653-1.203125 2.4531403-.78125 1.03125-1.921875 1.75-1.125.71875-2.5625 1.203125 3.46875 1.078125 5.171875 3.328125 1.703125 2.234375 1.703125 5.625 0 2.875-1.0625 5.09375-1.0625 2.203125-2.890625 3.71875-1.8125 1.5-4.203125 2.28125-2.375.765625-5.046875.765625-2.90625 0-5.0625-.65625-2.15625-.671875-3.765625-1.96875-1.59375-1.3125-2.71875-3.203125-1.109375-1.90625-1.90625-4.375l2.90625-1.203125q.734375-.328125 1.515625-.328125.6875 0 1.234375.296875.546875.296875.84375.859375.484375.9375 1.046875 1.84375.578125.90625 1.375 1.609375.796875.703125 1.875 1.140625 1.09375.4375 2.578125.4375 1.6875 0 2.9375-.546875 1.25-.546875 2.09375-1.421875.84375-.875 1.25-1.953125.421875-1.078125.421875-2.171875 0-1.390625-.296875-2.515625-.296875-1.140625-1.234375-1.9375-.921875-.8125-2.671875-1.265625-1.75-.453125-4.6875-.453125v-4.6875q2.4375-.03125 4.03125-.453125 1.59375-.421875 2.546875-1.1875.953125-.76564026 1.3125-1.8281403.375-1.0625.375-2.34375 0-2.75-1.5-4.140625-1.484375-1.40625-4.0625-1.40625-2.359375 0-3.90625 1.25-1.53125 1.234375-2.15625 3.171875-.3125 1.015625-.875 1.453125-.5625.4375-1.46875.4375-.421875 0-.90625-.078125l-3.46875-.609375q.40625-2.765625 1.546875-4.859375 1.15625-2.09375 2.875-3.484375 1.71875-1.40625 3.9375-2.109375 2.234375-.71875 4.796875-.71875z" fill="#000"/><path d="m747.20844 56.40941h141.88977v82.92914h-141.88977z" fill="#e75e2b" fill-rule="evenodd"/><path d="m747.20844 56.40941h141.88977v82.92914h-141.88977z" fill-rule="evenodd" stroke="#e75e2b" stroke-linecap="butt" stroke-linejoin="round"/><path d="m708.38965 139.33751h180.66144v94.14174h-180.66144z" fill="#e75e2b" fill-rule="evenodd"/><path d="m708.38965 139.33751h180.66144v94.14174h-180.66144z" fill-rule="evenodd" stroke="#e75e2b" stroke-linecap="butt" stroke-linejoin="round"/><path d="m790.4271 200.67088h7.8125v-22.46875q0-1.3125.078125-2.75l-5.546875 4.640625q-.34375.296875-.703125.40625-.359375.09375-.703125.09375-.53125 0-.984375-.21875-.4375-.234375-.640625-.515625l-2.078125-2.859375 11.75-10h5.421875v33.671875h6.921875v4.9375h-21.328125z" fill="#000"/><path d="m772.80695 233.48615h116.28351v38.992126h-116.28351z" fill="#e75e2b" fill-rule="evenodd"/><path d="m772.80695 233.48615h116.28351v38.992126h-116.28351z" fill-rule="evenodd" stroke="#e75e2b" stroke-linecap="butt" stroke-linejoin="round"/><path d="m772.80695 272.4806h116.28351v38.992126h-116.28351z" fill="#fae27e" fill-rule="evenodd"/><path d="m772.80695 272.4806h116.28351v38.992126h-116.28351z" fill-rule="evenodd" stroke="#fae27e" stroke-linecap="butt" stroke-linejoin="round"/><path d="m708.38965 311.47507h180.66144v177.03937h-180.66144z" fill="#fae27e" fill-rule="evenodd"/><path d="m708.38965 311.47507h180.66144v177.03937h-180.66144z" fill-rule="evenodd" stroke="#fae27e" stroke-linecap="butt" stroke-linejoin="round"/><path d="m799.3021 380.21036q2.671875 0 4.875.796875 2.21875.78125 3.796875 2.21875 1.578125 1.4375 2.453125 3.46875.875 2.015625.875 4.5 0 2.140625-.625 3.953125-.625 1.8125-1.6875 3.46875-1.046875 1.640625-2.46875 3.1875-1.40625 1.546875-2.953125 3.15625l-8.6875 8.875q1.28125-.375 2.5-.5625 1.234375-.203125 2.359375-.203125h9.890625q1.0625 0 1.6875.59375.625.59375.625 1.578125v3.953125h-26.453125v-2.1875q0-.671875.28125-1.390625.28125-.71875.890625-1.328125l11.71875-11.734375q1.453125-1.484375 2.609375-2.84375 1.171875-1.359375 1.953125-2.6875.796875-1.34375 1.203125-2.71875.40625-1.375.40625-2.890625 0-1.390625-.40625-2.4375-.390625-1.0625-1.140625-1.78125-.734375-.71875-1.765625-1.078125-1.03125-.359375-2.3125-.359375-2.359375 0-3.90625 1.203125-1.53125 1.203125-2.140625 3.21875-.296875 1.015625-.890625 1.453125-.578125.4375-1.484375.4375-.390625 0-.875-.078125l-3.46875-.609375q.40625-2.765625 1.546875-4.859375 1.140625-2.09375 2.859375-3.484375 1.734375-1.40625 3.953125-2.109375 2.21875-.71875 4.78125-.71875z" fill="#000"/><path d="m58.099957 495.51196-38.55118 28.692932" fill="none"/><path d="m58.099957 495.51196-24.11164 17.945862" fill-rule="evenodd" stroke="#595959" stroke-linecap="butt" stroke-linejoin="round" stroke-width="3"/><path d="m31.029766 509.48276-7.9627914 12.103607 13.87989-4.1535034z" fill="#595959" fill-rule="evenodd" stroke="#595959" stroke-linecap="butt" stroke-width="3"/><path d="m12.624505 551.64307-9.6377945-13.196838 18.519686-13.511841 9.6377945 13.196899z" fill="none"/><path d="m8.48328 541.3216q-.12901402-.17669678-.18670559-.3086548-.07952976-.13537598-.09354591-.26055908-.02663899-.1159668-.00278759-.2687378.01122856-.14361572.05451679-.34924316l4.015299-14.18634q-.3131628.28649902-.6195116.5293579-.31897163.2520752-.59666824.45465088l-8.532853 6.225525-1.6771724-2.2965088 14.023668-10.231567.9860306 1.3501587q.2211647.3027954.28025055.56915283.04646301.27557373-.05854416.6616821l-3.995861 14.133484q.29713345-.25549316.5908594-.48913574.29372692-.23364258.54617786-.41784668l8.608589-6.2807617 1.6771717 2.2965698-14.023668 10.231506-.995245-1.3627319z" fill="#595959"/><path d="m53.842777 522.7285-21.952755-30.078705" fill="none"/><path d="m53.842777 522.7285-21.952755-30.078705" fill-rule="evenodd" stroke="#595959" stroke-linecap="butt" stroke-linejoin="round" stroke-width="3"/></g></svg>