<svg fill="none" stroke-linecap="square" stroke-miterlimit="10" viewBox="0 0 960 540" xmlns="http://www.w3.org/2000/svg" xmlns:xlink="http://www.w3.org/1999/xlink"><clipPath id="a"><path d="m0 0h960v540h-960z"/></clipPath><g clip-path="url(#a)"><path d="m0 0h960v540h-960z" fill="#fff" fill-rule="evenodd"/><path d="m295.67133 341.07883 300.56696 198.89761" fill="none"/><path d="m295.67133 341.07883 300.56696 198.89761" fill-rule="evenodd" stroke="#595959" stroke-linecap="butt" stroke-linejoin="round"/><path d="m878.9027 288.80807-282.99213 250.67715" fill="none"/><path d="m878.9027 288.80807-282.99213 250.67715" fill-rule="evenodd" stroke="#595959" stroke-linecap="butt" stroke-linejoin="round"/><path d="m590.8864 13.931427-269.60632 292.28348" fill="none"/><path d="m590.8864 13.931427-269.60632 292.28348" fill-rule="evenodd" stroke="#595959" stroke-linecap="butt" stroke-linejoin="round"/><path d="m321.57935 306.38272-25.88977 35.118103" fill="none"/><path d="m321.57935 306.38272-25.88977 35.118103" fill-rule="evenodd" stroke="#595959" stroke-linecap="butt" stroke-linejoin="round"/><path d="m590.90704 13.509207 31.653564 24.755907" fill="none"/><path d="m590.90704 13.509207 31.653564 24.755907" fill-rule="evenodd" stroke="#595959" stroke-linecap="butt" stroke-linejoin="round"/><path d="m622.1875 38.164566 143.9685-38.17323" fill="none"/><path d="m622.1875 38.164566 143.9685-38.17323" fill-rule="evenodd" stroke="#595959" stroke-linecap="butt" stroke-linejoin="round"/><path d="m765.7352.18098634 7.370117 28.377953" fill="none"/><path d="m765.7352.18098634 7.370117 28.377953" fill-rule="evenodd" stroke="#595959" stroke-linecap="butt" stroke-linejoin="round"/><path d="m822.77203 18.042553-50.141724 10.047245" fill="none"/><path d="m822.77203 18.042553-50.141724 10.047245" fill-rule="evenodd" stroke="#595959" stroke-linecap="butt" stroke-linejoin="round"/><path d="m879.26514 289.0799-56.944885-270.77164" fill="none"/><g fill-rule="evenodd"><path d="m879.26514 289.0799-56.944885-270.77164" stroke="#595959" stroke-linecap="butt" stroke-linejoin="round"/><path d="m678.9865 272.0311c22.934998-34.676514 57.3562-52.32425 76.881836-39.417313 9.376587 6.1981354 13.9938965 18.757492 12.836182 34.915146-1.1577148 16.157654-7.9956055 34.590088-19.0094 51.24234-22.934998 34.676514-57.3562 52.32425-76.8819 39.417328-19.525635-12.906952-16.76178-51.480957 6.173279-86.1575z" fill="#cfe2f3"/><path d="m678.9865 272.0311c22.934998-34.676514 57.3562-52.32425 76.881836-39.417313 9.376587 6.1981354 13.9938965 18.757492 12.836182 34.915146-1.1577148 16.157654-7.9956055 34.590088-19.0094 51.24234-22.934998 34.676514-57.3562 52.32425-76.8819 39.417328-19.525635-12.906952-16.76178-51.480957 6.173279-86.1575z" stroke="#cfe2f3" stroke-linecap="butt" stroke-linejoin="round"/><path d="m605.1705 105.3424 76.06299-18.614174 9.952759 40.62992-76.06299 18.614174z" fill="#4a86e8"/><path d="m605.1705 105.3424 76.06299-18.614174 9.952759 40.62992-76.06299 18.614174z" stroke="#4a86e8" stroke-linecap="butt" stroke-linejoin="round"/><path d="m640.04236 138.72849 21.921265-5.3543243 4.251953 17.354324-21.921265 5.3543243z" fill="#4a86e8"/><path d="m640.04236 138.72849 21.921265-5.3543243 4.251953 17.354324-21.921265 5.3543243z" stroke="#4a86e8" stroke-linecap="butt" stroke-linejoin="round"/><path d="m533.4189 159.48434 29.417297 22.866135-73.88974 95.086624-29.417328-22.86615z" fill="#999"/><path d="m533.4189 159.48434 29.417297 22.866135-73.88974 95.086624-29.417328-22.86615z" stroke="#999" stroke-linecap="butt" stroke-linejoin="round"/><path d="m610.5974 227.07257 35.02362 27.212585-54.456665 70.04724-35.02362-27.212585z" fill="#e75e2b"/><path d="m610.5974 227.07257 35.02362 27.212585-54.456665 70.04724-35.02362-27.212585z" stroke="#f00" stroke-linecap="butt" stroke-linejoin="round"/><path d="m637.5546 264.53632 26.8031 20.787384-25.700745 33.102356-26.803162-20.787384z" fill="#f9cb9c"/><path d="m637.5546 264.53632 26.8031 20.787384-25.700745 33.102356-26.803162-20.787384z" stroke="#595959" stroke-linecap="butt" stroke-linejoin="round"/><path d="m442.77435 302.45734 119.4646 92.75589-36.15747 46.519684-119.4646-92.75589z" fill="#783f04"/><path d="m442.77435 302.45734 119.4646 92.75589-36.15747 46.519684-119.4646-92.75589z" stroke="#783f04" stroke-linecap="butt" stroke-linejoin="round"/></g><path d="m206.417 442.25696 71.11812-108.8504" fill="none"/><path d="m206.417 442.25696 71.11812-108.8504" fill-rule="evenodd" stroke="#ccc" stroke-linecap="butt" stroke-linejoin="round" stroke-width="8"/><path d="m568.92114 23.887447-292.18896 310.99213" fill="none"/><path d="m568.92114 23.887447-292.18896 310.99213" fill-rule="evenodd" stroke="#ccc" stroke-linecap="butt" stroke-linejoin="round" stroke-width="8"/><path d="m580.09357.92141837-11.873962 23.937008" fill="none"/><path d="m580.09357.92141837-11.873962 23.937008" fill-rule="evenodd" stroke="#ccc" stroke-linecap="butt" stroke-linejoin="round" stroke-width="8"/><path d="m585.1751 253.48044h31.653503v44.44095h-31.653503z" fill="none"/><path d="m597.4095 282.12216h3.515625v-10.125q0-.578125.03125-1.234375l-2.5 2.09375q-.15625.125-.328125.1875-.15625.046875-.3125.046875-.234375 0-.4375-.09375-.1875-.109375-.28125-.25l-.9375-1.28125 5.28125-4.5h2.4375v15.15625h3.125v2.21875h-9.59375z" fill="#595959"/><path d="m620.4586 269.26727h31.653503v44.44095h-31.653503z" fill="none"/><path d="m636.67737 282.58087q1.203125 0 2.203125.359375 1 .34375 1.703125 1 .703125.640625 1.09375 1.5625.40625.90625.40625 2.03125 0 .953125-.28125 1.765625-.28125.8125-.765625 1.5625-.46875.75-1.109375 1.453125-.625.6875-1.328125 1.40625l-3.90625 4q.578125-.171875 1.125-.265625.546875-.09375 1.0625-.09375h4.453125q.46875 0 .75.28125.28125.265625.28125.703125v1.78125h-11.890625v-.984375q0-.296875.125-.625.125-.328125.390625-.59375l5.265625-5.28125q.671875-.671875 1.1875-1.28125.53125-.625.875-1.21875.359375-.59375.546875-1.203125.1875-.625.1875-1.3125 0-.625-.1875-1.09375-.171875-.484375-.515625-.796875-.328125-.328125-.796875-.484375-.46875-.171875-1.03125-.171875-1.078125 0-1.765625.546875-.6875.53125-.96875 1.4375-.125.46875-.390625.671875-.265625.1875-.671875.1875-.1875 0-.390625-.03125l-1.5625-.28125q.171875-1.25.6875-2.1875.515625-.9375 1.28125-1.5625.78125-.640625 1.78125-.953125 1.015625-.328125 2.15625-.328125z" fill="#595959"/><path d="m698.51434 273.19354h31.653503v44.44095h-31.653503z" fill="none"/><path d="m715.01434 286.50714q1.203125 0 2.15625.34375.96875.34375 1.65625.953125.6875.609375 1.046875 1.421875.375.8125.375 1.765625 0 .828125-.1875 1.453125-.1875.625-.546875 1.09375-.34375.46875-.859375.796875-.515625.328125-1.15625.53125 1.5625.5 2.328125 1.515625.765625 1 .765625 2.53125 0 1.28125-.484375 2.28125-.46875 1-1.296875 1.6875-.8125.671875-1.890625 1.015625-1.0625.34375-2.265625.34375-1.3125 0-2.28125-.296875-.96875-.296875-1.6875-.875-.71875-.59375-1.234375-1.4375-.5-.859375-.859375-1.984375l1.3125-.53125q.328125-.15625.6875-.15625.3125 0 .546875.140625.25.125.390625.375.203125.421875.453125.828125.265625.40625.625.734375.359375.3125.84375.515625.5.203125 1.171875.203125.75 0 1.3125-.25.5625-.25.9375-.640625.390625-.40625.5625-.890625.1875-.484375.1875-.96875 0-.625-.125-1.140625-.125-.515625-.546875-.875-.421875-.359375-1.21875-.5625-.78125-.203125-2.09375-.203125v-2.109375q1.09375-.015625 1.8125-.203125.71875-.1875 1.140625-.53125.421875-.34375.59375-.8125.171875-.484375.171875-1.0625 0-1.234375-.671875-1.859375-.671875-.640625-1.84375-.640625-1.046875 0-1.75.5625-.6875.546875-.96875 1.421875-.140625.46875-.40625.671875-.25.1875-.65625.1875-.1875 0-.40625-.03125l-1.5625-.28125q.1875-1.25.703125-2.1875.515625-.9375 1.28125-1.5625.78125-.640625 1.78125-.953125 1-.328125 2.15625-.328125z" fill="#595959"/><path d="m468.59738 349.898h31.653534v44.44095h-31.653534z" fill="none"/><path d="m488.89426 374.2116h2.1875v1.71875q0 .25-.15625.421875-.15625.171875-.453125.171875h-1.578125v4.234375h-2.578125v-4.234375h-7.328125q-.296875 0-.53125-.1875-.21875-.1875-.28125-.46875l-.296875-1.5 8.21875-10.96875h2.796875zm-2.578125-5.671875q0-.375.015625-.8125.03125-.453125.078125-.9375l-5.375 7.421875h5.28125z" fill="#fff"/><path d="m632.2948 95.600464h31.653564v44.44095h-31.653564z" fill="none"/><path d="m653.1698 110.36719q0 .640625-.40625 1.03125-.40625.390625-1.34375.390625h-4.765625l-.625 3.625q1.171875-.234375 2.140625-.234375 1.375 0 2.40625.40625 1.03125.40625 1.734375 1.125.71875.71875 1.078125 1.6875.359375.96875.359375 2.09375 0 1.375-.484375 2.515625-.484375 1.140625-1.359375 1.953125-.859375.796875-2.046875 1.25-1.171875.4375-2.5625.4375-.8125 0-1.546875-.171875-.734375-.15625-1.375-.4375-.640625-.28125-1.1875-.640625-.546875-.375-.984375-.78125l.921875-1.265625q.28125-.40625.765625-.40625.296875 0 .59375.203125.3125.1875.71875.421875.40625.21875.953125.40625.546875.1875 1.3125.1875.8125 0 1.4375-.25.625-.265625 1.03125-.734375.421875-.484375.625-1.140625.21875-.65625.21875-1.421875 0-1.421875-.828125-2.21875-.8125-.796875-2.421875-.796875-1.25 0-2.53125.453125l-1.84375-.515625 1.4375-8.4375h8.578125z" fill="#595959"/><path d="m494.15994 196.25351h31.653534v44.44095h-31.653534z" fill="none"/><path d="m511.20682 216.27023q.9843445 0 1.9062195.328125.9375.328125 1.640625.984375.703125.65625 1.140625 1.625.4375.96875.4375 2.265625 0 1.21875-.453125 2.28125-.4375 1.0625-1.25 1.859375-.796875.78125-1.9375 1.234375-1.1249695.453125-2.4999695.453125-1.390625 0-2.5-.4375-1.09375-.453125-1.875-1.25-.78125-.796875-1.203125-1.90625-.40625-1.125-.40625-2.5 0-1.21875.5-2.5.5-1.296875 1.53125-2.6875l4.140625-5.5625q.21875-.28125.625-.484375.421875-.21875.96875-.21875h2.6405945l-5.1562195 6.3125q-.171875.203125-.328125.390625-.140625.171875-.28125.359375.5-.25 1.078125-.390625.59375-.15625 1.28125-.15625zm-4.15625 5.390625q0 .71875.1875 1.3125.203125.59375.59375 1.015625.390625.421875.96875.65625.578125.234375 1.328125.234375.71875 0 1.3125-.234375.5937195-.25 1.0155945-.671875.421875-.4375.65625-1.015625.25-.578125.25-1.265625 0-.75-.234375-1.34375-.21875-.59375-.640625-1-.421875-.421875-1.0155945-.625-.578125-.21875-1.296875-.21875-.703125 0-1.28125.234375-.578125.234375-1 .671875-.40625.421875-.625 1-.21875.578125-.21875 1.25z" fill="#595959"/><path d="m58.299213 509.3937-.724411-80.8819" fill="none"/><path d="m58.299213 509.3937-.5632019-62.88263" fill-rule="evenodd" stroke="#595959" stroke-linecap="butt" stroke-linejoin="round" stroke-width="3"/><path d="m62.69101 446.4667-5.076927-13.569366-4.833069 13.658142z" fill="#595959" fill-rule="evenodd" stroke="#595959" stroke-linecap="butt" stroke-width="3"/><path d="m39.76835 385.19946h27.496063v38.614197h-27.496063z" fill="none"/><path d="m52.20585 395.7872q.21875 0 .359375.03125.15625.015625.265625.078125.109375.046875.21875.15625.109375.09375.25.25l9.09375 11.609375q-.046875-.421875-.0625-.8125-.015625-.40625-.015625-.75v-10.5625h2.84375v17.359375h-1.671875q-.375 0-.625-.109375-.25-.125-.5-.4375l-9.0625-11.5625q.03125.390625.046875.765625.015625.375.015625.6875v10.65625h-2.84375v-17.359375z" fill="#595959"/><path d="m25.522076 476.5836h62.677166" fill="none"/><path d="m25.522076 476.5836h62.677166" fill-rule="evenodd" stroke="#595959" stroke-linecap="butt" stroke-linejoin="round" stroke-width="3"/><path d="m407.6645 352.08765 154.01575 119.68503-11.527527 14.86615-154.01578-119.68506z" fill="#00f" fill-rule="evenodd"/><path d="m407.6645 352.08765 154.01575 119.68503-11.527527 14.86615-154.01578-119.68506z" fill-rule="evenodd" stroke="#00f" stroke-linecap="butt" stroke-linejoin="round"/><path d="m569.4716 402.44336 55.433105 43.055115-40.724426 52.44095-55.433105-43.055115z" fill="#00f" fill-rule="evenodd"/><path d="m569.4716 402.44336 55.433105 43.055115-40.724426 52.44095-55.433105-43.055115z" fill-rule="evenodd" stroke="#00f" stroke-linecap="butt" stroke-linejoin="round"/><path d="m560.77216 427.97668h31.653564v44.44095h-31.653564z" fill="none"/><path d="m574.8659 452.72778v6.109375h-3.234375v-17.359375h5.65625q1.734375 0 3 .421875 1.28125.40625 2.109375 1.140625.828125.71875 1.21875 1.75.40625 1.015625.40625 2.234375 0 1.25-.421875 2.3125-.421875 1.046875-1.265625 1.796875-.84375.75-2.109375 1.171875-1.25.421875-2.9375.421875zm0-2.515625h2.421875q.890625 0 1.546875-.21875.65625-.234375 1.078125-.640625.4375-.421875.65625-1.015625.21875-.59375.21875-1.3125 0-.703125-.21875-1.265625-.21875-.5625-.65625-.953125-.421875-.40625-1.078125-.609375-.65625-.21875-1.546875-.21875h-2.421875z" fill="#fff"/><path d="m361.26413 359.5351 4.291321-6.2440796-56.517548-38.82199 8.582672-12.48819 56.51758 38.82199 4.291321-6.24411 3.9076233 21.06781z" fill="#eee" fill-rule="evenodd"/><path d="m361.26413 359.5351 4.291321-6.2440796-56.517548-38.82199 8.582672-12.48819 56.51758 38.82199 4.291321-6.24411 3.9076233 21.06781z" fill-rule="evenodd" stroke="#595959" stroke-linecap="butt" stroke-linejoin="round"/><path d="m333.27417 285.45508h31.653534v44.44095h-31.653534z" fill="none"/><path d="m348.63354 309.39368q-.90625 0-1.765625-.3125-.859375-.3125-1.546875-.9375-.671875-.640625-1.078125-1.5625-.40625-.9375-.40625-2.1875 0-1.15625.421875-2.171875.4375-1.03125 1.21875-1.796875.78125-.765625 1.875-1.203125 1.09375-.453125 2.40625-.453125 1.328125 0 2.390625.421875 1.0625.421875 1.8125 1.1875.75.75 1.15625 1.8125.40625 1.046875.40625 2.3125 0 .796875-.140625 1.515625-.140625.71875-.40625 1.390625-.25.65625-.609375 1.296875-.359375.625-.796875 1.265625l-3.984375 5.65625q-.203125.296875-.609375.5-.390625.1875-.90625.1875h-2.71875l5.375-6.734375q.203125-.25.390625-.484375.1875-.25.34375-.484375-.59375.390625-1.3125.59375-.71875.1875-1.515625.1875zm4.046875-5.203125q0-.703125-.21875-1.25-.21875-.5625-.609375-.953125-.390625-.390625-.9375-.59375-.546875-.203125-1.203125-.203125-.671875 0-1.21875.234375-.53125.21875-.90625.609375-.375.390625-.578125.9375-.203125.546875-.203125 1.203125 0 1.453125.75 2.21875.75.75 2.125.75.71875 0 1.265625-.21875.5625-.234375.953125-.625.390625-.40625.578125-.9375.203125-.546875.203125-1.171875z" fill="#595959"/><path d="m246.47563 352.48334-48.62993 78.01575" fill="none"/><path d="m246.47565 352.4833-42.282135 67.83215" fill-rule="evenodd" stroke="#595959" stroke-linecap="butt" stroke-linejoin="round" stroke-width="2"/><path d="m201.39008 418.568-1.9977112 9.449829 7.6045685-5.954895z" fill="#595959" fill-rule="evenodd" stroke="#595959" stroke-linecap="butt" stroke-width="2"/><path d="m101.46602 374.8269h143.9685v44.44095h-143.9685z" fill="none"/><path d="m153.90962 393.33862q-.09375.1875-.21875.265625-.109375.0625-.265625.0625-.15625 0-.359375-.125-.203125-.125-.484375-.28125-.265625-.15625-.625-.265625-.359375-.125-.859375-.125-.453125 0-.78125.109375-.328125.09375-.5625.296875-.234375.1875-.34375.453125-.109375.265625-.109375.59375 0 .40625.21875.6875.234375.265625.609375.453125.375.1875.859375.34375.484375.15625.984375.328125.5.171875.96875.40625.484375.21875.859375.5625.375.34375.609375.859375.234375.5.234375 1.21875 0 .78125-.28125 1.46875-.265625.6875-.78125 1.203125-.515625.5-1.265625.796875-.734375.28125-1.6875.28125-.5625 0-1.09375-.109375-.53125-.109375-1.03125-.296875-.484375-.203125-.921875-.484375-.421875-.28125-.765625-.625l.625-1.03125q.09375-.109375.21875-.1875.125-.078125.28125-.078125.1875 0 .421875.171875.234375.15625.546875.359375.328125.203125.75.375.421875.15625 1.03125.15625.921875 0 1.421875-.4375.5-.4375.5-1.25 0-.46875-.234375-.75-.21875-.296875-.59375-.484375-.375-.203125-.859375-.328125-.484375-.140625-.984375-.296875-.484375-.15625-.96875-.375-.484375-.234375-.859375-.59375-.375-.359375-.609375-.890625-.21875-.546875-.21875-1.34375 0-.640625.25-1.234375.25-.59375.734375-1.0625.484375-.46875 1.1875-.75.703125-.28125 1.609375-.28125 1.03125 0 1.890625.328125.859375.3125 1.46875.890625zm4.958893 9.59375q-1.0625 0-1.640625-.59375-.578125-.609375-.578125-1.671875v-4.59375h-.828125q-.15625 0-.28125-.09375-.109375-.109375-.109375-.3125v-.78125l1.3125-.21875.421875-2.25q.03125-.15625.140625-.234375.125-.09375.296875-.09375h1.03125v2.578125h2.15625v1.40625h-2.15625v4.453125q0 .390625.1875.609375.1875.203125.515625.203125.1875 0 .296875-.03125.125-.046875.21875-.09375.09375-.046875.15625-.09375.078125-.046875.15625-.046875.09375 0 .140625.046875.0625.046875.125.125l.59375.96875q-.4375.359375-1 .546875-.546875.171875-1.15625.171875zm8.39505 1.375q.15625 0 .1875.125l.3125.734375q-.265625.171875-.671875.28125-.390625.125-.828125.125-.78125 0-1.21875-.328125-.421875-.328125-.421875-.859375 0-.40625.25-.78125.25-.375.703125-.6875-.796875-.03125-1.484375-.328125-.6875-.3125-1.203125-.859375-.5-.5625-.796875-1.359375-.28125-.8125-.28125-1.84375 0-.84375.265625-1.578125.28125-.734375.78125-1.28125.515625-.5625 1.25-.875.734375-.3125 1.65625-.3125.765625 0 1.421875.25.65625.234375 1.125.71875.46875.46875.734375 1.171875.265625.6875.265625 1.578125 0 .21875-.03125.375-.015625.140625-.0625.234375-.046875.078125-.140625.109375-.078125.03125-.21875.03125h-5.078125q.09375 1.265625.6875 1.859375.59375.59375 1.5625.59375.484375 0 .828125-.109375.34375-.109375.609375-.25.265625-.140625.453125-.25.203125-.109375.375-.109375.25 0 .375.1875l.5625.71875q-.46875.53125-1.09375.828125-.609375.296875-1.25.421875-.140625.078125-.296875.1875-.140625.125-.25.25-.109375.140625-.171875.296875-.0625.15625-.0625.328125 0 .234375.140625.375.15625.140625.4375.140625.140625 0 .234375-.015625.109375-.015625.15625-.046875.0625-.015625.109375-.03125.046875-.015625.078125-.015625zm-1.46875-8.421875q-.859375 0-1.359375.5-.484375.484375-.609375 1.375h3.703125q0-.390625-.109375-.71875-.09375-.34375-.3125-.59375-.21875-.265625-.546875-.40625-.328125-.15625-.765625-.15625zm7.13002-4.96875v6.8125h.359375q.203125 0 .3125-.046875.109375-.0625.234375-.21875l2.046875-2.515625q.140625-.171875.28125-.25.15625-.09375.40625-.09375h1.8125l-2.5625 3.046875q-.125.171875-.28125.3125-.140625.125-.296875.234375.15625.125.28125.28125.140625.15625.265625.34375l2.734375 3.984375h-1.78125q-.234375 0-.40625-.078125-.15625-.078125-.28125-.28125l-2.078125-3.109375q-.125-.171875-.25-.234375-.109375-.0625-.359375-.0625h-.4375v3.765625h-1.984375v-11.890625zm8.917633 3.6875v8.203125h-1.96875v-8.203125zm.296875-2.390625q0 .25-.109375.484375-.09375.21875-.265625.390625-.171875.15625-.40625.265625-.234375.09375-.5.09375-.25 0-.484375-.09375-.21875-.109375-.390625-.265625-.171875-.171875-.28125-.390625-.09375-.234375-.09375-.484375 0-.265625.09375-.5.109375-.234375.28125-.390625.171875-.171875.390625-.265625.234375-.109375.484375-.109375.265625 0 .5.109375.234375.09375.40625.265625.171875.15625.265625.390625.109375.234375.109375.5zm1.9453125 10.59375v-8.203125h1.203125q.375 0 .5.359375l.140625.640625q.25-.25.515625-.453125.28125-.21875.578125-.359375.3125-.15625.671875-.234375.359375-.078125.765625-.078125.671875 0 1.1875.234375.53125.21875.875.625.34375.40625.515625.984375.1875.578125.1875 1.265625v5.21875h-1.96875v-5.21875q0-.75-.359375-1.15625-.34375-.421875-1.03125-.421875-.515625 0-.96875.234375-.4375.234375-.84375.625v5.9375zm11.714142 2.25q-.09375.21875-.234375.328125-.140625.109375-.421875.109375h-1.46875l1.53125-3.296875-3.3125-7.59375h1.71875q.25 0 .375.109375.125.109375.1875.25l1.75 4.265625q.09375.203125.15625.4375.0625.21875.109375.4375.0625-.234375.140625-.453125.078125-.21875.15625-.4375l1.65625-4.25q.0625-.15625.203125-.25.15625-.109375.34375-.109375h1.578125z" fill="#595959"/><path d="m781.8752 289.07974h31.653564v44.44095h-31.653564z" fill="none"/><path d="m804.03143 302.58084v1.296875q0 .578125-.125.9375-.125.34375-.25.578125l-6.5625 13.53125q-.203125.421875-.578125.71875-.375.296875-1.015625.296875h-2.140625l6.71875-13.265625q.421875-.8125.9375-1.40625h-8.296875q-.28125 0-.484375-.203125-.203125-.203125-.203125-.46875v-2.015625z" fill="#595959"/><path d="m605.1718 335.85666h31.653503v44.44095h-31.653503z" fill="none"/><path d="m621.12494 366.90463q-1.34375 0-2.453125-.359375-1.109375-.359375-1.90625-1.015625-.78125-.65625-1.21875-1.59375-.4375-.9375-.4375-2.09375 0-1.53125.75-2.59375.765625-1.0625 2.359375-1.578125-1.28125-.53125-1.90625-1.5-.625-.96875-.625-2.34375 0-.984375.390625-1.828125.40625-.859375 1.125-1.484375.71875-.640625 1.71875-.984375 1.015625-.359375 2.203125-.359375 1.203125 0 2.203125.359375 1.015625.34375 1.734375.984375.71875.625 1.109375 1.484375.40625.84375.40625 1.828125 0 1.375-.640625 2.34375-.625.96875-1.890625 1.5 1.59375.515625 2.34375 1.578125.765625 1.0625.765625 2.59375 0 1.15625-.4375 2.09375-.4375.9375-1.234375 1.59375-.78125.65625-1.90625 1.015625-1.109375.359375-2.453125.359375zm0-2.3125q.734375 0 1.28125-.203125.5625-.21875.9375-.578125.375-.375.5625-.890625.203125-.515625.203125-1.125 0-1.421875-.796875-2.15625-.78125-.734375-2.1875-.734375-1.390625 0-2.1875.734375-.78125.734375-.78125 2.15625 0 .609375.1875 1.125.203125.515625.578125.890625.375.359375.921875.578125.5625.203125 1.28125.203125zm0-8.015625q.734375 0 1.21875-.21875.484375-.234375.78125-.609375.3125-.390625.4375-.875.125-.484375.125-1 0-.484375-.15625-.921875-.15625-.453125-.46875-.796875-.3125-.34375-.796875-.546875-.46875-.203125-1.140625-.203125-.65625 0-1.140625.203125-.46875.203125-.796875.546875-.3125.34375-.46875.796875-.140625.4375-.140625.921875 0 .515625.125 1 .125.484375.421875.875.296875.375.78125.609375.5.21875 1.21875.21875z" fill="#595959"/></g></svg>