<svg version="1.1" viewBox="0.0 0.0 960.0 540.0" fill="none" stroke="none" stroke-linecap="square" stroke-miterlimit="10" xmlns:xlink="http://www.w3.org/1999/xlink" xmlns="http://www.w3.org/2000/svg"><clipPath id="g21bfa31faab_0_71.0"><path d="m0 0l960.0 0l0 540.0l-960.0 0l0 -540.0z" clip-rule="nonzero"/></clipPath><g clip-path="url(#g21bfa31faab_0_71.0)"><path fill="#ffffff" d="m0 0l960.0 0l0 540.0l-960.0 0z" fill-rule="evenodd"/><path fill="#000000" fill-opacity="0.0" d="m295.67133 341.07883l300.56696 198.89761" fill-rule="evenodd"/><path stroke="#595959" stroke-width="1.0" stroke-linejoin="round" stroke-linecap="butt" d="m295.67133 341.07883l300.56696 198.89761" fill-rule="evenodd"/><path fill="#000000" fill-opacity="0.0" d="m878.9027 288.80807l-282.99213 250.67715" fill-rule="evenodd"/><path stroke="#595959" stroke-width="1.0" stroke-linejoin="round" stroke-linecap="butt" d="m878.9027 288.80807l-282.99213 250.67715" fill-rule="evenodd"/><path fill="#000000" fill-opacity="0.0" d="m590.8864 13.931427l-269.60632 292.28348" fill-rule="evenodd"/><path stroke="#595959" stroke-width="1.0" stroke-linejoin="round" stroke-linecap="butt" d="m590.8864 13.931427l-269.60632 292.28348" fill-rule="evenodd"/><path fill="#000000" fill-opacity="0.0" d="m321.57935 306.38272l-25.88977 35.118103" fill-rule="evenodd"/><path stroke="#595959" stroke-width="1.0" stroke-linejoin="round" stroke-linecap="butt" d="m321.57935 306.38272l-25.88977 35.118103" fill-rule="evenodd"/><path fill="#000000" fill-opacity="0.0" d="m590.90704 13.509207l31.653564 24.755907" fill-rule="evenodd"/><path stroke="#595959" stroke-width="1.0" stroke-linejoin="round" stroke-linecap="butt" d="m590.90704 13.509207l31.653564 24.755907" fill-rule="evenodd"/><path fill="#000000" fill-opacity="0.0" d="m622.1875 38.164566l143.9685 -38.17323" fill-rule="evenodd"/><path stroke="#595959" stroke-width="1.0" stroke-linejoin="round" stroke-linecap="butt" d="m622.1875 38.164566l143.9685 -38.17323" fill-rule="evenodd"/><path fill="#000000" fill-opacity="0.0" d="m765.7352 0.18098634l7.370117 28.377953" fill-rule="evenodd"/><path stroke="#595959" stroke-width="1.0" stroke-linejoin="round" stroke-linecap="butt" d="m765.7352 0.18098634l7.370117 28.377953" fill-rule="evenodd"/><path fill="#000000" fill-opacity="0.0" d="m822.77203 18.042553l-50.141724 10.047245" fill-rule="evenodd"/><path stroke="#595959" stroke-width="1.0" stroke-linejoin="round" stroke-linecap="butt" d="m822.77203 18.042553l-50.141724 10.047245" fill-rule="evenodd"/><path fill="#000000" fill-opacity="0.0" d="m879.26514 289.0799l-56.944885 -270.77164" fill-rule="evenodd"/><path stroke="#595959" stroke-width="1.0" stroke-linejoin="round" stroke-linecap="butt" d="m879.26514 289.0799l-56.944885 -270.77164" fill-rule="evenodd"/><path fill="#cfe2f3" d="m678.9865 272.0311l0 0c22.934998 -34.676514 57.3562 -52.32425 76.881836 -39.417313l0 0c9.376587 6.1981354 13.9938965 18.757492 12.836182 34.915146c-1.1577148 16.157654 -7.9956055 34.590088 -19.0094 51.24234l0 0c-22.934998 34.676514 -57.3562 52.32425 -76.8819 39.417328l0 0c-19.525635 -12.906952 -16.76178 -51.480957 6.173279 -86.1575z" fill-rule="evenodd"/><path stroke="#cfe2f3" stroke-width="1.0" stroke-linejoin="round" stroke-linecap="butt" d="m678.9865 272.0311l0 0c22.934998 -34.676514 57.3562 -52.32425 76.881836 -39.417313l0 0c9.376587 6.1981354 13.9938965 18.757492 12.836182 34.915146c-1.1577148 16.157654 -7.9956055 34.590088 -19.0094 51.24234l0 0c-22.934998 34.676514 -57.3562 52.32425 -76.8819 39.417328l0 0c-19.525635 -12.906952 -16.76178 -51.480957 6.173279 -86.1575z" fill-rule="evenodd"/><path fill="#4a86e8" d="m605.1705 105.3424l76.06299 -18.614174l9.952759 40.62992l-76.06299 18.614174z" fill-rule="evenodd"/><path stroke="#4a86e8" stroke-width="1.0" stroke-linejoin="round" stroke-linecap="butt" d="m605.1705 105.3424l76.06299 -18.614174l9.952759 40.62992l-76.06299 18.614174z" fill-rule="evenodd"/><path fill="#4a86e8" d="m640.04236 138.72849l21.921265 -5.3543243l4.251953 17.354324l-21.921265 5.3543243z" fill-rule="evenodd"/><path stroke="#4a86e8" stroke-width="1.0" stroke-linejoin="round" stroke-linecap="butt" d="m640.04236 138.72849l21.921265 -5.3543243l4.251953 17.354324l-21.921265 5.3543243z" fill-rule="evenodd"/><path fill="#999999" d="m533.4189 159.48434l29.417297 22.866135l-73.88974 95.086624l-29.417328 -22.86615z" fill-rule="evenodd"/><path stroke="#999999" stroke-width="1.0" stroke-linejoin="round" stroke-linecap="butt" d="m533.4189 159.48434l29.417297 22.866135l-73.88974 95.086624l-29.417328 -22.86615z" fill-rule="evenodd"/><path fill="#e75e2b" d="m610.5974 227.07257l35.02362 27.212585l-54.456665 70.04724l-35.02362 -27.212585z" fill-rule="evenodd"/><path stroke="#ff0000" stroke-width="1.0" stroke-linejoin="round" stroke-linecap="butt" d="m610.5974 227.07257l35.02362 27.212585l-54.456665 70.04724l-35.02362 -27.212585z" fill-rule="evenodd"/><path fill="#f9cb9c" d="m637.5546 264.53632l26.8031 20.787384l-25.700745 33.102356l-26.803162 -20.787384z" fill-rule="evenodd"/><path stroke="#595959" stroke-width="1.0" stroke-linejoin="round" stroke-linecap="butt" d="m637.5546 264.53632l26.8031 20.787384l-25.700745 33.102356l-26.803162 -20.787384z" fill-rule="evenodd"/><path fill="#783f04" d="m442.77435 302.45734l119.4646 92.75589l-36.15747 46.519684l-119.4646 -92.75589z" fill-rule="evenodd"/><path stroke="#783f04" stroke-width="1.0" stroke-linejoin="round" stroke-linecap="butt" d="m442.77435 302.45734l119.4646 92.75589l-36.15747 46.519684l-119.4646 -92.75589z" fill-rule="evenodd"/><path fill="#000000" fill-opacity="0.0" d="m206.417 442.25696l71.11812 -108.8504" fill-rule="evenodd"/><path stroke="#cccccc" stroke-width="8.0" stroke-linejoin="round" stroke-linecap="butt" d="m206.417 442.25696l71.11812 -108.8504" fill-rule="evenodd"/><path fill="#000000" fill-opacity="0.0" d="m568.92114 23.887447l-292.18896 310.99213" fill-rule="evenodd"/><path stroke="#cccccc" stroke-width="8.0" stroke-linejoin="round" stroke-linecap="butt" d="m568.92114 23.887447l-292.18896 310.99213" fill-rule="evenodd"/><path fill="#000000" fill-opacity="0.0" d="m580.09357 0.92141837l-11.873962 23.937008" fill-rule="evenodd"/><path stroke="#cccccc" stroke-width="8.0" stroke-linejoin="round" stroke-linecap="butt" d="m580.09357 0.92141837l-11.873962 23.937008" fill-rule="evenodd"/><path fill="#000000" fill-opacity="0.0" d="m585.1751 253.48044l31.653503 0l0 44.44095l-31.653503 0z" fill-rule="evenodd"/><path fill="#595959" d="m597.4095 282.12216l3.515625 0l0 -10.125q0 -0.578125 0.03125 -1.234375l-2.5 2.09375q-0.15625 0.125 -0.328125 0.1875q-0.15625 0.046875 -0.3125 0.046875q-0.234375 0 -0.4375 -0.09375q-0.1875 -0.109375 -0.28125 -0.25l-0.9375 -1.28125l5.28125 -4.5l2.4375 0l0 15.15625l3.125 0l0 2.21875l-9.59375 0l0 -2.21875z" fill-rule="nonzero"/><path fill="#000000" fill-opacity="0.0" d="m620.4586 269.26727l31.653503 0l0 44.44095l-31.653503 0z" fill-rule="evenodd"/><path fill="#595959" d="m636.67737 282.58087q1.203125 0 2.203125 0.359375q1.0 0.34375 1.703125 1.0q0.703125 0.640625 1.09375 1.5625q0.40625 0.90625 0.40625 2.03125q0 0.953125 -0.28125 1.765625q-0.28125 0.8125 -0.765625 1.5625q-0.46875 0.75 -1.109375 1.453125q-0.625 0.6875 -1.328125 1.40625l-3.90625 4.0q0.578125 -0.171875 1.125 -0.265625q0.546875 -0.09375 1.0625 -0.09375l4.453125 0q0.46875 0 0.75 0.28125q0.28125 0.265625 0.28125 0.703125l0 1.78125l-11.890625 0l0 -0.984375q0 -0.296875 0.125 -0.625q0.125 -0.328125 0.390625 -0.59375l5.265625 -5.28125q0.671875 -0.671875 1.1875 -1.28125q0.53125 -0.625 0.875 -1.21875q0.359375 -0.59375 0.546875 -1.203125q0.1875 -0.625 0.1875 -1.3125q0 -0.625 -0.1875 -1.09375q-0.171875 -0.484375 -0.515625 -0.796875q-0.328125 -0.328125 -0.796875 -0.484375q-0.46875 -0.171875 -1.03125 -0.171875q-1.078125 0 -1.765625 0.546875q-0.6875 0.53125 -0.96875 1.4375q-0.125 0.46875 -0.390625 0.671875q-0.265625 0.1875 -0.671875 0.1875q-0.1875 0 -0.390625 -0.03125l-1.5625 -0.28125q0.171875 -1.25 0.6875 -2.1875q0.515625 -0.9375 1.28125 -1.5625q0.78125 -0.640625 1.78125 -0.953125q1.015625 -0.328125 2.15625 -0.328125z" fill-rule="nonzero"/><path fill="#000000" fill-opacity="0.0" d="m698.51434 273.19354l31.653503 0l0 44.44095l-31.653503 0z" fill-rule="evenodd"/><path fill="#595959" d="m715.01434 286.50714q1.203125 0 2.15625 0.34375q0.96875 0.34375 1.65625 0.953125q0.6875 0.609375 1.046875 1.421875q0.375 0.8125 0.375 1.765625q0 0.828125 -0.1875 1.453125q-0.1875 0.625 -0.546875 1.09375q-0.34375 0.46875 -0.859375 0.796875q-0.515625 0.328125 -1.15625 0.53125q1.5625 0.5 2.328125 1.515625q0.765625 1.0 0.765625 2.53125q0 1.28125 -0.484375 2.28125q-0.46875 1.0 -1.296875 1.6875q-0.8125 0.671875 -1.890625 1.015625q-1.0625 0.34375 -2.265625 0.34375q-1.3125 0 -2.28125 -0.296875q-0.96875 -0.296875 -1.6875 -0.875q-0.71875 -0.59375 -1.234375 -1.4375q-0.5 -0.859375 -0.859375 -1.984375l1.3125 -0.53125q0.328125 -0.15625 0.6875 -0.15625q0.3125 0 0.546875 0.140625q0.25 0.125 0.390625 0.375q0.203125 0.421875 0.453125 0.828125q0.265625 0.40625 0.625 0.734375q0.359375 0.3125 0.84375 0.515625q0.5 0.203125 1.171875 0.203125q0.75 0 1.3125 -0.25q0.5625 -0.25 0.9375 -0.640625q0.390625 -0.40625 0.5625 -0.890625q0.1875 -0.484375 0.1875 -0.96875q0 -0.625 -0.125 -1.140625q-0.125 -0.515625 -0.546875 -0.875q-0.421875 -0.359375 -1.21875 -0.5625q-0.78125 -0.203125 -2.09375 -0.203125l0 -2.109375q1.09375 -0.015625 1.8125 -0.203125q0.71875 -0.1875 1.140625 -0.53125q0.421875 -0.34375 0.59375 -0.8125q0.171875 -0.484375 0.171875 -1.0625q0 -1.234375 -0.671875 -1.859375q-0.671875 -0.640625 -1.84375 -0.640625q-1.046875 0 -1.75 0.5625q-0.6875 0.546875 -0.96875 1.421875q-0.140625 0.46875 -0.40625 0.671875q-0.25 0.1875 -0.65625 0.1875q-0.1875 0 -0.40625 -0.03125l-1.5625 -0.28125q0.1875 -1.25 0.703125 -2.1875q0.515625 -0.9375 1.28125 -1.5625q0.78125 -0.640625 1.78125 -0.953125q1.0 -0.328125 2.15625 -0.328125z" fill-rule="nonzero"/><path fill="#000000" fill-opacity="0.0" d="m468.59738 349.898l31.653534 0l0 44.44095l-31.653534 0z" fill-rule="evenodd"/><path fill="#ffffff" d="m488.89426 374.2116l2.1875 0l0 1.71875q0 0.25 -0.15625 0.421875q-0.15625 0.171875 -0.453125 0.171875l-1.578125 0l0 4.234375l-2.578125 0l0 -4.234375l-7.328125 0q-0.296875 0 -0.53125 -0.1875q-0.21875 -0.1875 -0.28125 -0.46875l-0.296875 -1.5l8.21875 -10.96875l2.796875 0l0 10.8125zm-2.578125 -5.671875q0 -0.375 0.015625 -0.8125q0.03125 -0.453125 0.078125 -0.9375l-5.375 7.421875l5.28125 0l0 -5.671875z" fill-rule="nonzero"/><path fill="#000000" fill-opacity="0.0" d="m632.2948 95.600464l31.653564 0l0 44.44095l-31.653564 0z" fill-rule="evenodd"/><path fill="#595959" d="m653.1698 110.36719q0 0.640625 -0.40625 1.03125q-0.40625 0.390625 -1.34375 0.390625l-4.765625 0l-0.625 3.625q1.171875 -0.234375 2.140625 -0.234375q1.375 0 2.40625 0.40625q1.03125 0.40625 1.734375 1.125q0.71875 0.71875 1.078125 1.6875q0.359375 0.96875 0.359375 2.09375q0 1.375 -0.484375 2.515625q-0.484375 1.140625 -1.359375 1.953125q-0.859375 0.796875 -2.046875 1.25q-1.171875 0.4375 -2.5625 0.4375q-0.8125 0 -1.546875 -0.171875q-0.734375 -0.15625 -1.375 -0.4375q-0.640625 -0.28125 -1.1875 -0.640625q-0.546875 -0.375 -0.984375 -0.78125l0.921875 -1.265625q0.28125 -0.40625 0.765625 -0.40625q0.296875 0 0.59375 0.203125q0.3125 0.1875 0.71875 0.421875q0.40625 0.21875 0.953125 0.40625q0.546875 0.1875 1.3125 0.1875q0.8125 0 1.4375 -0.25q0.625 -0.265625 1.03125 -0.734375q0.421875 -0.484375 0.625 -1.140625q0.21875 -0.65625 0.21875 -1.421875q0 -1.421875 -0.828125 -2.21875q-0.8125 -0.796875 -2.421875 -0.796875q-1.25 0 -2.53125 0.453125l-1.84375 -0.515625l1.4375 -8.4375l8.578125 0l0 1.265625z" fill-rule="nonzero"/><path fill="#000000" fill-opacity="0.0" d="m494.15994 196.25351l31.653534 0l0 44.44095l-31.653534 0z" fill-rule="evenodd"/><path fill="#595959" d="m511.20682 216.27023q0.9843445 0 1.9062195 0.328125q0.9375 0.328125 1.640625 0.984375q0.703125 0.65625 1.140625 1.625q0.4375 0.96875 0.4375 2.265625q0 1.21875 -0.453125 2.28125q-0.4375 1.0625 -1.25 1.859375q-0.796875 0.78125 -1.9375 1.234375q-1.1249695 0.453125 -2.4999695 0.453125q-1.390625 0 -2.5 -0.4375q-1.09375 -0.453125 -1.875 -1.25q-0.78125 -0.796875 -1.203125 -1.90625q-0.40625 -1.125 -0.40625 -2.5q0 -1.21875 0.5 -2.5q0.5 -1.296875 1.53125 -2.6875l4.140625 -5.5625q0.21875 -0.28125 0.625 -0.484375q0.421875 -0.21875 0.96875 -0.21875l2.6405945 0l-5.1562195 6.3125q-0.171875 0.203125 -0.328125 0.390625q-0.140625 0.171875 -0.28125 0.359375q0.5 -0.25 1.078125 -0.390625q0.59375 -0.15625 1.28125 -0.15625zm-4.15625 5.390625q0 0.71875 0.1875 1.3125q0.203125 0.59375 0.59375 1.015625q0.390625 0.421875 0.96875 0.65625q0.578125 0.234375 1.328125 0.234375q0.71875 0 1.3125 -0.234375q0.5937195 -0.25 1.0155945 -0.671875q0.421875 -0.4375 0.65625 -1.015625q0.25 -0.578125 0.25 -1.265625q0 -0.75 -0.234375 -1.34375q-0.21875 -0.59375 -0.640625 -1.0q-0.421875 -0.421875 -1.0155945 -0.625q-0.578125 -0.21875 -1.296875 -0.21875q-0.703125 0 -1.28125 0.234375q-0.578125 0.234375 -1.0 0.671875q-0.40625 0.421875 -0.625 1.0q-0.21875 0.578125 -0.21875 1.25z" fill-rule="nonzero"/><path fill="#000000" fill-opacity="0.0" d="m58.299213 509.3937l-0.724411 -80.8819" fill-rule="evenodd"/><path stroke="#595959" stroke-width="3.0" stroke-linejoin="round" stroke-linecap="butt" d="m58.299213 509.3937l-0.5632019 -62.88263" fill-rule="evenodd"/><path fill="#595959" stroke="#595959" stroke-width="3.0" stroke-linecap="butt" d="m62.69101 446.4667l-5.076927 -13.569366l-4.833069 13.658142z" fill-rule="evenodd"/><path fill="#000000" fill-opacity="0.0" d="m39.76835 385.19946l27.496063 0l0 38.614197l-27.496063 0z" fill-rule="evenodd"/><path fill="#595959" d="m52.20585 395.7872q0.21875 0 0.359375 0.03125q0.15625 0.015625 0.265625 0.078125q0.109375 0.046875 0.21875 0.15625q0.109375 0.09375 0.25 0.25l9.09375 11.609375q-0.046875 -0.421875 -0.0625 -0.8125q-0.015625 -0.40625 -0.015625 -0.75l0 -10.5625l2.84375 0l0 17.359375l-1.671875 0q-0.375 0 -0.625 -0.109375q-0.25 -0.125 -0.5 -0.4375l-9.0625 -11.5625q0.03125 0.390625 0.046875 0.765625q0.015625 0.375 0.015625 0.6875l0 10.65625l-2.84375 0l0 -17.359375l1.6875 0l0 0z" fill-rule="nonzero"/><path fill="#000000" fill-opacity="0.0" d="m25.522076 476.5836l62.677166 0" fill-rule="evenodd"/><path stroke="#595959" stroke-width="3.0" stroke-linejoin="round" stroke-linecap="butt" d="m25.522076 476.5836l62.677166 0" fill-rule="evenodd"/><path fill="#0000ff" d="m407.6645 352.08765l154.01575 119.68503l-11.527527 14.86615l-154.01578 -119.68506z" fill-rule="evenodd"/><path stroke="#0000ff" stroke-width="1.0" stroke-linejoin="round" stroke-linecap="butt" d="m407.6645 352.08765l154.01575 119.68503l-11.527527 14.86615l-154.01578 -119.68506z" fill-rule="evenodd"/><path fill="#0000ff" d="m569.4716 402.44336l55.433105 43.055115l-40.724426 52.44095l-55.433105 -43.055115z" fill-rule="evenodd"/><path stroke="#0000ff" stroke-width="1.0" stroke-linejoin="round" stroke-linecap="butt" d="m569.4716 402.44336l55.433105 43.055115l-40.724426 52.44095l-55.433105 -43.055115z" fill-rule="evenodd"/><path fill="#000000" fill-opacity="0.0" d="m560.77216 427.97668l31.653564 0l0 44.44095l-31.653564 0z" fill-rule="evenodd"/><path fill="#ffffff" d="m574.8659 452.72778l0 6.109375l-3.234375 0l0 -17.359375l5.65625 0q1.734375 0 3.0 0.421875q1.28125 0.40625 2.109375 1.140625q0.828125 0.71875 1.21875 1.75q0.40625 1.015625 0.40625 2.234375q0 1.25 -0.421875 2.3125q-0.421875 1.046875 -1.265625 1.796875q-0.84375 0.75 -2.109375 1.171875q-1.25 0.421875 -2.9375 0.421875l-2.421875 0zm0 -2.515625l2.421875 0q0.890625 0 1.546875 -0.21875q0.65625 -0.234375 1.078125 -0.640625q0.4375 -0.421875 0.65625 -1.015625q0.21875 -0.59375 0.21875 -1.3125q0 -0.703125 -0.21875 -1.265625q-0.21875 -0.5625 -0.65625 -0.953125q-0.421875 -0.40625 -1.078125 -0.609375q-0.65625 -0.21875 -1.546875 -0.21875l-2.421875 0l0 6.234375z" fill-rule="nonzero"/><path fill="#eeeeee" d="m361.26413 359.5351l4.291321 -6.2440796l-56.517548 -38.82199l8.582672 -12.48819l56.51758 38.82199l4.291321 -6.24411l3.9076233 21.06781z" fill-rule="evenodd"/><path stroke="#595959" stroke-width="1.0" stroke-linejoin="round" stroke-linecap="butt" d="m361.26413 359.5351l4.291321 -6.2440796l-56.517548 -38.82199l8.582672 -12.48819l56.51758 38.82199l4.291321 -6.24411l3.9076233 21.06781z" fill-rule="evenodd"/><path fill="#000000" fill-opacity="0.0" d="m333.27417 285.45508l31.653534 0l0 44.44095l-31.653534 0z" fill-rule="evenodd"/><path fill="#595959" d="m349.2273 316.50305q-1.34375 0 -2.453125 -0.359375q-1.109375 -0.359375 -1.90625 -1.015625q-0.78125 -0.65625 -1.21875 -1.59375q-0.4375 -0.9375 -0.4375 -2.09375q0 -1.53125 0.75 -2.59375q0.765625 -1.0625 2.359375 -1.578125q-1.28125 -0.53125 -1.90625 -1.5q-0.625 -0.96875 -0.625 -2.34375q0 -0.984375 0.390625 -1.828125q0.40625 -0.859375 1.125 -1.484375q0.71875 -0.640625 1.71875 -0.984375q1.015625 -0.359375 2.203125 -0.359375q1.203125 0 2.203125 0.359375q1.015625 0.34375 1.734375 0.984375q0.71875 0.625 1.109375 1.484375q0.40625 0.84375 0.40625 1.828125q0 1.375 -0.640625 2.34375q-0.625 0.96875 -1.890625 1.5q1.59375 0.515625 2.34375 1.578125q0.765625 1.0625 0.765625 2.59375q0 1.15625 -0.4375 2.09375q-0.4375 0.9375 -1.234375 1.59375q-0.78125 0.65625 -1.90625 1.015625q-1.109375 0.359375 -2.453125 0.359375zm0 -2.3125q0.734375 0 1.28125 -0.203125q0.5625 -0.21875 0.9375 -0.578125q0.375 -0.375 0.5625 -0.890625q0.203125 -0.515625 0.203125 -1.125q0 -1.421875 -0.796875 -2.15625q-0.78125 -0.734375 -2.1875 -0.734375q-1.390625 0 -2.1875 0.734375q-0.78125 0.734375 -0.78125 2.15625q0 0.609375 0.1875 1.125q0.203125 0.515625 0.578125 0.890625q0.375 0.359375 0.921875 0.578125q0.5625 0.203125 1.28125 0.203125zm0 -8.015625q0.734375 0 1.21875 -0.21875q0.484375 -0.234375 0.78125 -0.609375q0.3125 -0.390625 0.4375 -0.875q0.125 -0.484375 0.125 -1.0q0 -0.484375 -0.15625 -0.921875q-0.15625 -0.453125 -0.46875 -0.796875q-0.3125 -0.34375 -0.796875 -0.546875q-0.46875 -0.203125 -1.140625 -0.203125q-0.65625 0 -1.140625 0.203125q-0.46875 0.203125 -0.796875 0.546875q-0.3125 0.34375 -0.46875 0.796875q-0.140625 0.4375 -0.140625 0.921875q0 0.515625 0.125 1.0q0.125 0.484375 0.421875 0.875q0.296875 0.375 0.78125 0.609375q0.5 0.21875 1.21875 0.21875z" fill-rule="nonzero"/><path fill="#000000" fill-opacity="0.0" d="m246.47563 352.48334l-48.62993 78.01575" fill-rule="evenodd"/><path stroke="#595959" stroke-width="2.0" stroke-linejoin="round" stroke-linecap="butt" d="m246.47565 352.4833l-42.282135 67.83215" fill-rule="evenodd"/><path fill="#595959" stroke="#595959" stroke-width="2.0" stroke-linecap="butt" d="m201.39008 418.568l-1.9977112 9.449829l7.6045685 -5.954895z" fill-rule="evenodd"/><path fill="#000000" fill-opacity="0.0" d="m101.46602 374.8269l143.9685 0l0 44.44095l-143.9685 0z" fill-rule="evenodd"/><path fill="#595959" d="m153.90962 393.33862q-0.09375 0.1875 -0.21875 0.265625q-0.109375 0.0625 -0.265625 0.0625q-0.15625 0 -0.359375 -0.125q-0.203125 -0.125 -0.484375 -0.28125q-0.265625 -0.15625 -0.625 -0.265625q-0.359375 -0.125 -0.859375 -0.125q-0.453125 0 -0.78125 0.109375q-0.328125 0.09375 -0.5625 0.296875q-0.234375 0.1875 -0.34375 0.453125q-0.109375 0.265625 -0.109375 0.59375q0 0.40625 0.21875 0.6875q0.234375 0.265625 0.609375 0.453125q0.375 0.1875 0.859375 0.34375q0.484375 0.15625 0.984375 0.328125q0.5 0.171875 0.96875 0.40625q0.484375 0.21875 0.859375 0.5625q0.375 0.34375 0.609375 0.859375q0.234375 0.5 0.234375 1.21875q0 0.78125 -0.28125 1.46875q-0.265625 0.6875 -0.78125 1.203125q-0.515625 0.5 -1.265625 0.796875q-0.734375 0.28125 -1.6875 0.28125q-0.5625 0 -1.09375 -0.109375q-0.53125 -0.109375 -1.03125 -0.296875q-0.484375 -0.203125 -0.921875 -0.484375q-0.421875 -0.28125 -0.765625 -0.625l0.625 -1.03125q0.09375 -0.109375 0.21875 -0.1875q0.125 -0.078125 0.28125 -0.078125q0.1875 0 0.421875 0.171875q0.234375 0.15625 0.546875 0.359375q0.328125 0.203125 0.75 0.375q0.421875 0.15625 1.03125 0.15625q0.921875 0 1.421875 -0.4375q0.5 -0.4375 0.5 -1.25q0 -0.46875 -0.234375 -0.75q-0.21875 -0.296875 -0.59375 -0.484375q-0.375 -0.203125 -0.859375 -0.328125q-0.484375 -0.140625 -0.984375 -0.296875q-0.484375 -0.15625 -0.96875 -0.375q-0.484375 -0.234375 -0.859375 -0.59375q-0.375 -0.359375 -0.609375 -0.890625q-0.21875 -0.546875 -0.21875 -1.34375q0 -0.640625 0.25 -1.234375q0.25 -0.59375 0.734375 -1.0625q0.484375 -0.46875 1.1875 -0.75q0.703125 -0.28125 1.609375 -0.28125q1.03125 0 1.890625 0.328125q0.859375 0.3125 1.46875 0.890625l-0.515625 1.015625zm4.958893 9.59375q-1.0625 0 -1.640625 -0.59375q-0.578125 -0.609375 -0.578125 -1.671875l0 -4.59375l-0.828125 0q-0.15625 0 -0.28125 -0.09375q-0.109375 -0.109375 -0.109375 -0.3125l0 -0.78125l1.3125 -0.21875l0.421875 -2.25q0.03125 -0.15625 0.140625 -0.234375q0.125 -0.09375 0.296875 -0.09375l1.03125 0l0 2.578125l2.15625 0l0 1.40625l-2.15625 0l0 4.453125q0 0.390625 0.1875 0.609375q0.1875 0.203125 0.515625 0.203125q0.1875 0 0.296875 -0.03125q0.125 -0.046875 0.21875 -0.09375q0.09375 -0.046875 0.15625 -0.09375q0.078125 -0.046875 0.15625 -0.046875q0.09375 0 0.140625 0.046875q0.0625 0.046875 0.125 0.125l0.59375 0.96875q-0.4375 0.359375 -1.0 0.546875q-0.546875 0.171875 -1.15625 0.171875zm8.39505 1.375q0.15625 0 0.1875 0.125l0.3125 0.734375q-0.265625 0.171875 -0.671875 0.28125q-0.390625 0.125 -0.828125 0.125q-0.78125 0 -1.21875 -0.328125q-0.421875 -0.328125 -0.421875 -0.859375q0 -0.40625 0.25 -0.78125q0.25 -0.375 0.703125 -0.6875q-0.796875 -0.03125 -1.484375 -0.328125q-0.6875 -0.3125 -1.203125 -0.859375q-0.5 -0.5625 -0.796875 -1.359375q-0.28125 -0.8125 -0.28125 -1.84375q0 -0.84375 0.265625 -1.578125q0.28125 -0.734375 0.78125 -1.28125q0.515625 -0.5625 1.25 -0.875q0.734375 -0.3125 1.65625 -0.3125q0.765625 0 1.421875 0.25q0.65625 0.234375 1.125 0.71875q0.46875 0.46875 0.734375 1.171875q0.265625 0.6875 0.265625 1.578125q0 0.21875 -0.03125 0.375q-0.015625 0.140625 -0.0625 0.234375q-0.046875 0.078125 -0.140625 0.109375q-0.078125 0.03125 -0.21875 0.03125l-5.078125 0q0.09375 1.265625 0.6875 1.859375q0.59375 0.59375 1.5625 0.59375q0.484375 0 0.828125 -0.109375q0.34375 -0.109375 0.609375 -0.25q0.265625 -0.140625 0.453125 -0.25q0.203125 -0.109375 0.375 -0.109375q0.25 0 0.375 0.1875l0.5625 0.71875q-0.46875 0.53125 -1.09375 0.828125q-0.609375 0.296875 -1.25 0.421875q-0.140625 0.078125 -0.296875 0.1875q-0.140625 0.125 -0.25 0.25q-0.109375 0.140625 -0.171875 0.296875q-0.0625 0.15625 -0.0625 0.328125q0 0.234375 0.140625 0.375q0.15625 0.140625 0.4375 0.140625q0.140625 0 0.234375 -0.015625q0.109375 -0.015625 0.15625 -0.046875q0.0625 -0.015625 0.109375 -0.03125q0.046875 -0.015625 0.078125 -0.015625zm-1.46875 -8.421875q-0.859375 0 -1.359375 0.5q-0.484375 0.484375 -0.609375 1.375l3.703125 0q0 -0.390625 -0.109375 -0.71875q-0.09375 -0.34375 -0.3125 -0.59375q-0.21875 -0.265625 -0.546875 -0.40625q-0.328125 -0.15625 -0.765625 -0.15625zm7.13002 -4.96875l0 6.8125l0.359375 0q0.203125 0 0.3125 -0.046875q0.109375 -0.0625 0.234375 -0.21875l2.046875 -2.515625q0.140625 -0.171875 0.28125 -0.25q0.15625 -0.09375 0.40625 -0.09375l1.8125 0l-2.5625 3.046875q-0.125 0.171875 -0.28125 0.3125q-0.140625 0.125 -0.296875 0.234375q0.15625 0.125 0.28125 0.28125q0.140625 0.15625 0.265625 0.34375l2.734375 3.984375l-1.78125 0q-0.234375 0 -0.40625 -0.078125q-0.15625 -0.078125 -0.28125 -0.28125l-2.078125 -3.109375q-0.125 -0.171875 -0.25 -0.234375q-0.109375 -0.0625 -0.359375 -0.0625l-0.4375 0l0 3.765625l-1.984375 0l0 -11.890625l1.984375 0zm8.917633 3.6875l0 8.203125l-1.96875 0l0 -8.203125l1.96875 0zm0.296875 -2.390625q0 0.25 -0.109375 0.484375q-0.09375 0.21875 -0.265625 0.390625q-0.171875 0.15625 -0.40625 0.265625q-0.234375 0.09375 -0.5 0.09375q-0.25 0 -0.484375 -0.09375q-0.21875 -0.109375 -0.390625 -0.265625q-0.171875 -0.171875 -0.28125 -0.390625q-0.09375 -0.234375 -0.09375 -0.484375q0 -0.265625 0.09375 -0.5q0.109375 -0.234375 0.28125 -0.390625q0.171875 -0.171875 0.390625 -0.265625q0.234375 -0.109375 0.484375 -0.109375q0.265625 0 0.5 0.109375q0.234375 0.09375 0.40625 0.265625q0.171875 0.15625 0.265625 0.390625q0.109375 0.234375 0.109375 0.5zm1.9453125 10.59375l0 -8.203125l1.203125 0q0.375 0 0.5 0.359375l0.140625 0.640625q0.25 -0.25 0.515625 -0.453125q0.28125 -0.21875 0.578125 -0.359375q0.3125 -0.15625 0.671875 -0.234375q0.359375 -0.078125 0.765625 -0.078125q0.671875 0 1.1875 0.234375q0.53125 0.21875 0.875 0.625q0.34375 0.40625 0.515625 0.984375q0.1875 0.578125 0.1875 1.265625l0 5.21875l-1.96875 0l0 -5.21875q0 -0.75 -0.359375 -1.15625q-0.34375 -0.421875 -1.03125 -0.421875q-0.515625 0 -0.96875 0.234375q-0.4375 0.234375 -0.84375 0.625l0 5.9375l-1.96875 0zm11.714142 2.25q-0.09375 0.21875 -0.234375 0.328125q-0.140625 0.109375 -0.421875 0.109375l-1.46875 0l1.53125 -3.296875l-3.3125 -7.59375l1.71875 0q0.25 0 0.375 0.109375q0.125 0.109375 0.1875 0.25l1.75 4.265625q0.09375 0.203125 0.15625 0.4375q0.0625 0.21875 0.109375 0.4375q0.0625 -0.234375 0.140625 -0.453125q0.078125 -0.21875 0.15625 -0.4375l1.65625 -4.25q0.0625 -0.15625 0.203125 -0.25q0.15625 -0.109375 0.34375 -0.109375l1.578125 0l-4.46875 10.453125z" fill-rule="nonzero"/><path fill="#000000" fill-opacity="0.0" d="m781.8752 289.07974l31.653564 0l0 44.44095l-31.653564 0z" fill-rule="evenodd"/><path fill="#595959" d="m804.03143 302.58084l0 1.296875q0 0.578125 -0.125 0.9375q-0.125 0.34375 -0.25 0.578125l-6.5625 13.53125q-0.203125 0.421875 -0.578125 0.71875q-0.375 0.296875 -1.015625 0.296875l-2.140625 0l6.71875 -13.265625q0.421875 -0.8125 0.9375 -1.40625l-8.296875 0q-0.28125 0 -0.484375 -0.203125q-0.203125 -0.203125 -0.203125 -0.46875l0 -2.015625l12.0 0z" fill-rule="nonzero"/></g></svg>