<svg enable-background="new 0 0 100 100" height="100" viewBox="0 0 100 100" width="100" xmlns="http://www.w3.org/2000/svg"><circle cx="50" cy="50" fill="#050505" r="50"/><path d="m75 47.5c0 13.8-11.2 25-25 25s-25-11.2-25-25" fill="#fff"/><path d="m25 72.5h50" fill="none" stroke="#fff" stroke-miterlimit="10" stroke-width="2"/><path d="m72.5 51.3h5s3.5 2.3 1.7 5.2-5.5 5.2-8.3 5.2-5 0-5 0" fill="none" stroke="#fff" stroke-miterlimit="10" stroke-width="2"/><path d="m33.5 2.5c0 9.6-2.4 20.5 7.9 25.6 4.1 2 9 1.5 13.5 1.5 4 0 14.4.3 15.2 5.8 0-1.7 0-3.3 0-5-1 7-11.6 5.4-16.4 6.5-4.6 1-3.6 4.3-3.6 8.1 0 2.8.1 2.8.1 0 0-1.1 0-2.1 0-3.2v2.5c2-7 19.6.9 20-9.1.2-5.8-.8-8.1-7-9.8-7.2-2-14.7.4-21.7-2.4-9.1-3.5-8-12.6-8-20.5 0-2.8 0-2.8 0 0z" fill="#fff"/></svg>